<svg width="100" height="100" viewBox="0 0 450 450" fill="none" xmlns="http://www.w3.org/2000/svg">
<mask id="path-1-inside-1_113_5" fill="white">
<path fill-rule="evenodd" clip-rule="evenodd" d="M34.318 351.675L225 450L415.682 351.675L450 74.7L225 -1.52588e-05L0 74.7L34.318 351.675Z"/>
</mask>
<path fill-rule="evenodd" clip-rule="evenodd" d="M34.318 351.675L225 450L415.682 351.675L450 74.7L225 -1.52588e-05L0 74.7L34.318 351.675Z" fill="url(#paint0_linear_113_5)"/>
<path d="M225 450L221.334 457.11L225 459.001L228.666 457.11L225 450ZM34.318 351.675L26.3787 352.659L26.898 356.85L30.6515 358.785L34.318 351.675ZM415.682 351.675L419.348 358.785L423.102 356.85L423.621 352.659L415.682 351.675ZM450 74.7L457.939 75.6837L458.746 69.1742L452.521 67.1075L450 74.7ZM225 -1.52588e-05L227.521 -7.59251L225 -8.42939L222.479 -7.59251L225 -1.52588e-05ZM0 74.7L-2.52071 67.1075L-8.74583 69.1742L-7.93929 75.6837L0 74.7ZM228.666 442.89L37.9844 344.565L30.6515 358.785L221.334 457.11L228.666 442.89ZM228.666 457.11L419.348 358.785L412.016 344.565L221.334 442.89L228.666 457.11ZM423.621 352.659L457.939 75.6837L442.061 73.7163L407.743 350.691L423.621 352.659ZM452.521 67.1075L227.521 -7.59251L222.479 7.59248L447.479 82.2925L452.521 67.1075ZM2.52071 82.2925L227.521 7.59248L222.479 -7.59251L-2.52071 67.1075L2.52071 82.2925ZM42.2573 350.691L7.93929 73.7163L-7.93929 75.6837L26.3787 352.659L42.2573 350.691Z" fill="white" mask="url(#path-1-inside-1_113_5)"/>
<path d="M64.616 346.56H82.28L72.104 318.576L61.4 348H59.864L72.104 314.352L84.344 348H64.616V346.56ZM89.7631 348V320.16H91.2031L106.851 345.36V320.16H108.291V348H106.851L91.2031 322.752V348H89.7631ZM128.603 329.28L134.987 323.952C133.579 322.064 131.051 321.12 127.403 321.12C125.803 321.12 124.459 321.296 123.371 321.648C122.283 321.968 121.275 322.592 120.347 323.52C119.451 324.416 118.779 325.744 118.331 327.504C117.883 329.232 117.659 331.424 117.659 334.08C117.659 336.736 117.883 338.944 118.331 340.704C118.779 342.432 119.451 343.76 120.347 344.688C121.275 345.584 122.283 346.208 123.371 346.56C124.459 346.88 125.803 347.04 127.403 347.04C131.019 347.04 133.531 346.112 134.939 344.256V335.76H136.379V348.432C136.379 354.544 133.579 357.6 127.979 357.6H122.363V356.16H127.979C130.379 356.16 132.139 355.52 133.259 354.24C134.379 352.992 134.939 350.592 134.939 347.04V346.32C133.211 347.76 130.699 348.48 127.403 348.48C123.403 348.48 120.539 347.344 118.811 345.072C117.083 342.8 116.219 339.136 116.219 334.08C116.219 329.024 117.083 325.36 118.811 323.088C120.539 320.816 123.403 319.68 127.403 319.68C132.043 319.68 135.195 321.2 136.859 324.24L130.859 329.28H128.603ZM160.826 346.56V348H144.794V320.16H146.234V346.56H160.826ZM184.981 345.168C183.221 347.376 180.341 348.48 176.341 348.48C172.341 348.48 169.477 347.344 167.749 345.072C166.021 342.8 165.157 339.136 165.157 334.08C165.157 329.024 166.021 325.36 167.749 323.088C169.477 320.816 172.341 319.68 176.341 319.68C180.981 319.68 184.133 321.2 185.797 324.24L174.037 334.08H171.781L183.925 323.952C182.517 322.064 179.989 321.12 176.341 321.12C174.741 321.12 173.397 321.296 172.309 321.648C171.221 321.968 170.213 322.592 169.285 323.52C168.389 324.416 167.717 325.744 167.269 327.504C166.821 329.232 166.597 331.424 166.597 334.08C166.597 336.736 166.821 338.944 167.269 340.704C167.717 342.432 168.389 343.76 169.285 344.688C170.213 345.584 171.221 346.208 172.309 346.56C173.397 346.88 174.741 347.04 176.341 347.04C179.989 347.04 182.517 346.096 183.925 344.208L184.981 345.168ZM199.566 348H192.654V320.16H197.934C201.71 320.16 204.558 320.816 206.478 322.128C208.43 323.44 209.406 325.232 209.406 327.504C209.406 330.224 208.206 332.192 205.806 333.408C207.566 334.016 208.878 334.928 209.742 336.144C210.606 337.328 211.038 338.704 211.038 340.272C211.038 342.576 210.078 344.448 208.158 345.888C206.27 347.296 203.406 348 199.566 348ZM199.566 346.56C202.382 346.56 204.75 346.048 206.67 345.024C208.622 344 209.598 342.416 209.598 340.272C209.598 339.28 209.23 338.208 208.494 337.056C207.758 335.872 206.622 335.008 205.086 334.464L202.59 333.6L204.894 332.4C205.694 331.984 206.398 331.36 207.006 330.528C207.646 329.664 207.966 328.656 207.966 327.504C207.966 325.488 207.006 324 205.086 323.04C203.166 322.08 200.782 321.6 197.934 321.6H194.094V346.56H199.566ZM230.1 334.032L236.628 348H235.044L228.324 333.6C228.388 333.568 228.66 333.44 229.14 333.216C229.652 332.96 230.004 332.784 230.196 332.688C230.388 332.56 230.708 332.352 231.156 332.064C231.604 331.776 231.94 331.504 232.164 331.248C232.388 330.96 232.628 330.64 232.884 330.288C233.172 329.904 233.38 329.488 233.508 329.04C233.636 328.56 233.7 328.048 233.7 327.504C233.7 325.488 232.74 324 230.82 323.04C228.9 322.08 226.516 321.6 223.668 321.6H219.828V348H218.388V320.16H223.668C227.444 320.16 230.292 320.816 232.212 322.128C234.164 323.44 235.14 325.232 235.14 327.504C235.14 328.976 234.644 330.288 233.652 331.44C232.66 332.56 231.476 333.424 230.1 334.032ZM245.682 346.56H261.33L251.49 323.376L241.026 348H239.49L251.49 319.68L263.49 348H245.682V346.56ZM270.358 345.072C268.63 342.8 267.766 339.136 267.766 334.08C267.766 329.024 268.63 325.36 270.358 323.088C272.086 320.816 274.95 319.68 278.95 319.68C282.95 319.68 285.83 320.784 287.59 322.992L286.534 323.952C285.126 322.064 282.598 321.12 278.95 321.12C277.35 321.12 276.006 321.296 274.918 321.648C273.83 321.968 272.822 322.592 271.894 323.52C270.998 324.416 270.326 325.744 269.878 327.504C269.43 329.232 269.206 331.424 269.206 334.08C269.206 336.736 269.43 338.944 269.878 340.704C270.326 342.432 270.998 343.76 271.894 344.688C272.822 345.584 273.83 346.208 274.918 346.56C276.006 346.88 277.35 347.04 278.95 347.04C282.598 347.04 285.126 346.096 286.534 344.208L287.59 345.168C285.83 347.376 282.95 348.48 278.95 348.48C274.95 348.48 272.086 347.344 270.358 345.072ZM294.748 348V320.16H296.188V348H294.748ZM312.508 348L297.724 333.312L310.972 320.16H313.036L299.788 333.312L314.572 348H312.508ZM338.075 345.168C336.315 347.376 333.435 348.48 329.435 348.48C325.435 348.48 322.571 347.344 320.843 345.072C319.115 342.8 318.251 339.136 318.251 334.08C318.251 329.024 319.115 325.36 320.843 323.088C322.571 320.816 325.435 319.68 329.435 319.68C334.075 319.68 337.227 321.2 338.891 324.24L327.131 334.08H324.875L337.019 323.952C335.611 322.064 333.083 321.12 329.435 321.12C327.835 321.12 326.491 321.296 325.403 321.648C324.315 321.968 323.307 322.592 322.379 323.52C321.483 324.416 320.811 325.744 320.363 327.504C319.915 329.232 319.691 331.424 319.691 334.08C319.691 336.736 319.915 338.944 320.363 340.704C320.811 342.432 321.483 343.76 322.379 344.688C323.307 345.584 324.315 346.208 325.403 346.56C326.491 346.88 327.835 347.04 329.435 347.04C333.083 347.04 335.611 346.096 337.019 344.208L338.075 345.168ZM363.748 320.16V321.6H353.668V348H352.228V321.6H342.148V320.16H363.748ZM376.623 319.584C380.591 319.584 383.407 320.464 385.071 322.224L384.111 323.28C382.575 321.776 380.143 321.024 376.815 321.024C371.823 321.024 369.327 323.008 369.327 326.976C369.327 328.512 369.935 329.744 371.151 330.672C372.367 331.568 373.839 332.256 375.567 332.736C377.327 333.216 379.071 333.728 380.799 334.272C382.559 334.784 384.047 335.632 385.263 336.816C386.479 337.968 387.087 339.488 387.087 341.376C387.087 343.584 386.175 345.344 384.351 346.656C382.527 347.968 379.887 348.624 376.431 348.624C374.735 348.624 373.055 348.4 371.391 347.952C369.759 347.504 368.543 346.848 367.743 345.984L368.703 344.928C370.335 346.432 372.847 347.184 376.239 347.184C379.343 347.184 381.679 346.608 383.247 345.456C384.847 344.304 385.647 342.96 385.647 341.424C385.647 339.824 385.039 338.528 383.823 337.536C382.607 336.544 381.119 335.808 379.359 335.328C377.631 334.816 375.887 334.304 374.127 333.792C372.399 333.248 370.927 332.416 369.711 331.296C368.495 330.176 367.887 328.704 367.887 326.88C367.887 324.416 368.703 322.592 370.335 321.408C371.999 320.192 374.095 319.584 376.623 319.584Z" fill="white"/>
<path d="M140.576 292.188H339.729L225 62.6476L104.318 304H87L225 28L363 304H140.576V292.188Z" fill="white"/>
<defs>
<linearGradient id="paint0_linear_113_5" x1="74.6809" y1="142.181" x2="454.308" y2="303.989" gradientUnits="userSpaceOnUse">
<stop stop-color="#7702FF"/>
<stop offset="0.265625" stop-color="#AC18E5" stop-opacity="0.88"/>
<stop offset="0.927083" stop-color="#CC26D5"/>
<stop offset="1" stop-color="#7702FF" stop-opacity="0"/>
</linearGradient>
</defs>
</svg>
