<svg width="968" height="968" viewBox="0 0 968 968" fill="none" xmlns="http://www.w3.org/2000/svg">
<g filter="url(#filter0_d_113_5)">
<mask id="path-1-inside-1_113_5" fill="white">
<path fill-rule="evenodd" clip-rule="evenodd" d="M77.2117 750.24L484 960L890.788 750.24L964 159.36L484 0L4.00002 159.36L77.2117 750.24Z"/>
</mask>
<path fill-rule="evenodd" clip-rule="evenodd" d="M77.2117 750.24L484 960L890.788 750.24L964 159.36L484 0L4.00002 159.36L77.2117 750.24Z" fill="url(#paint0_linear_113_5)" shape-rendering="crispEdges"/>
<path d="M484 960L474.834 977.776L484 982.502L493.166 977.776L484 960ZM77.2117 750.24L57.3634 752.699L58.6617 763.177L68.0455 768.016L77.2117 750.24ZM890.788 750.24L899.954 768.016L909.338 763.177L910.637 752.699L890.788 750.24ZM964 159.36L983.848 161.819L985.865 145.546L970.302 140.379L964 159.36ZM484 0L490.302 -18.9812L484 -21.0734L477.698 -18.9812L484 0ZM4.00002 159.36L-2.30176 140.379L-17.8646 145.546L-15.8482 161.819L4.00002 159.36ZM493.166 942.224L86.3778 732.464L68.0455 768.016L474.834 977.776L493.166 942.224ZM493.166 977.776L899.954 768.016L881.622 732.464L474.834 942.224L493.166 977.776ZM910.637 752.699L983.848 161.819L944.152 156.901L870.94 747.781L910.637 752.699ZM970.302 140.379L490.302 -18.9812L477.698 18.9812L957.698 178.341L970.302 140.379ZM10.3018 178.341L490.302 18.9812L477.698 -18.9812L-2.30176 140.379L10.3018 178.341ZM97.0599 747.781L23.8482 156.901L-15.8482 161.819L57.3634 752.699L97.0599 747.781Z" fill="white" mask="url(#path-1-inside-1_113_5)"/>
</g>
<path d="M162.232 737.12H197.56L177.208 681.152L155.8 740H152.728L177.208 672.704L201.688 740H162.232V737.12ZM212.526 740V684.32H215.406L246.702 734.72V684.32H249.582V740H246.702L215.406 689.504V740H212.526ZM290.207 702.56L302.975 691.904C300.159 688.128 295.103 686.24 287.807 686.24C284.607 686.24 281.919 686.592 279.743 687.296C277.567 687.936 275.551 689.184 273.695 691.04C271.903 692.832 270.559 695.488 269.663 699.008C268.767 702.464 268.319 706.848 268.319 712.16C268.319 717.472 268.767 721.888 269.663 725.408C270.559 728.864 271.903 731.52 273.695 733.376C275.551 735.168 277.567 736.416 279.743 737.12C281.919 737.76 284.607 738.08 287.807 738.08C295.039 738.08 300.063 736.224 302.879 732.512V715.52H305.759V740.864C305.759 753.088 300.159 759.2 288.959 759.2H277.727V756.32H288.959C293.759 756.32 297.279 755.04 299.519 752.48C301.759 749.984 302.879 745.184 302.879 738.08V736.64C299.423 739.52 294.399 740.96 287.807 740.96C279.807 740.96 274.079 738.688 270.623 734.144C267.167 729.6 265.439 722.272 265.439 712.16C265.439 702.048 267.167 694.72 270.623 690.176C274.079 685.632 279.807 683.36 287.807 683.36C297.087 683.36 303.391 686.4 306.719 692.48L294.719 702.56H290.207ZM354.653 737.12V740H322.589V684.32H325.469V737.12H354.653ZM402.962 734.336C399.442 738.752 393.682 740.96 385.682 740.96C377.682 740.96 371.954 738.688 368.498 734.144C365.042 729.6 363.314 722.272 363.314 712.16C363.314 702.048 365.042 694.72 368.498 690.176C371.954 685.632 377.682 683.36 385.682 683.36C394.962 683.36 401.266 686.4 404.594 692.48L381.074 712.16H376.562L400.85 691.904C398.034 688.128 392.978 686.24 385.682 686.24C382.482 686.24 379.794 686.592 377.618 687.296C375.442 687.936 373.426 689.184 371.57 691.04C369.778 692.832 368.434 695.488 367.538 699.008C366.642 702.464 366.194 706.848 366.194 712.16C366.194 717.472 366.642 721.888 367.538 725.408C368.434 728.864 369.778 731.52 371.57 733.376C373.426 735.168 375.442 736.416 377.618 737.12C379.794 737.76 382.482 738.08 385.682 738.08C392.978 738.08 398.034 736.192 400.85 732.416L402.962 734.336ZM432.132 740H418.308V684.32H428.868C436.42 684.32 442.116 685.632 445.956 688.256C449.86 690.88 451.812 694.464 451.812 699.008C451.812 704.448 449.412 708.384 444.612 710.816C448.132 712.032 450.756 713.856 452.484 716.288C454.212 718.656 455.076 721.408 455.076 724.544C455.076 729.152 453.156 732.896 449.316 735.776C445.54 738.592 439.812 740 432.132 740ZM432.132 737.12C437.764 737.12 442.5 736.096 446.34 734.048C450.244 732 452.196 728.832 452.196 724.544C452.196 722.56 451.46 720.416 449.988 718.112C448.516 715.744 446.244 714.016 443.172 712.928L438.18 711.2L442.788 708.8C444.388 707.968 445.796 706.72 447.012 705.056C448.292 703.328 448.932 701.312 448.932 699.008C448.932 694.976 447.012 692 443.172 690.08C439.332 688.16 434.564 687.2 428.868 687.2H421.188V737.12H432.132ZM493.2 712.064L506.256 740H503.088L489.648 711.2C489.776 711.136 490.32 710.88 491.28 710.432C492.304 709.92 493.008 709.568 493.392 709.376C493.776 709.12 494.416 708.704 495.312 708.128C496.208 707.552 496.88 707.008 497.328 706.496C497.776 705.92 498.256 705.28 498.768 704.576C499.344 703.808 499.76 702.976 500.016 702.08C500.272 701.12 500.4 700.096 500.4 699.008C500.4 694.976 498.48 692 494.64 690.08C490.8 688.16 486.032 687.2 480.336 687.2H472.656V740H469.776V684.32H480.336C487.888 684.32 493.584 685.632 497.424 688.256C501.328 690.88 503.28 694.464 503.28 699.008C503.28 701.952 502.288 704.576 500.304 706.88C498.32 709.12 495.952 710.848 493.2 712.064ZM524.364 737.12H555.66L535.98 690.752L515.052 740H511.98L535.98 683.36L559.98 740H524.364V737.12ZM573.717 734.144C570.261 729.6 568.533 722.272 568.533 712.16C568.533 702.048 570.261 694.72 573.717 690.176C577.173 685.632 582.901 683.36 590.901 683.36C598.901 683.36 604.661 685.568 608.181 689.984L606.069 691.904C603.253 688.128 598.197 686.24 590.901 686.24C587.701 686.24 585.013 686.592 582.837 687.296C580.661 687.936 578.645 689.184 576.789 691.04C574.997 692.832 573.653 695.488 572.757 699.008C571.861 702.464 571.413 706.848 571.413 712.16C571.413 717.472 571.861 721.888 572.757 725.408C573.653 728.864 574.997 731.52 576.789 733.376C578.645 735.168 580.661 736.416 582.837 737.12C585.013 737.76 587.701 738.08 590.901 738.08C598.197 738.08 603.253 736.192 606.069 732.416L608.181 734.336C604.661 738.752 598.901 740.96 590.901 740.96C582.901 740.96 577.173 738.688 573.717 734.144ZM622.495 740V684.32H625.375V740H622.495ZM658.015 740L628.447 710.624L654.943 684.32H659.071L632.575 710.624L662.143 740H658.015ZM709.149 734.336C705.629 738.752 699.869 740.96 691.869 740.96C683.869 740.96 678.141 738.688 674.685 734.144C671.229 729.6 669.501 722.272 669.501 712.16C669.501 702.048 671.229 694.72 674.685 690.176C678.141 685.632 683.869 683.36 691.869 683.36C701.149 683.36 707.453 686.4 710.781 692.48L687.261 712.16H682.749L707.037 691.904C704.221 688.128 699.165 686.24 691.869 686.24C688.669 686.24 685.981 686.592 683.805 687.296C681.629 687.936 679.613 689.184 677.757 691.04C675.965 692.832 674.621 695.488 673.725 699.008C672.829 702.464 672.381 706.848 672.381 712.16C672.381 717.472 672.829 721.888 673.725 725.408C674.621 728.864 675.965 731.52 677.757 733.376C679.613 735.168 681.629 736.416 683.805 737.12C685.981 737.76 688.669 738.08 691.869 738.08C699.165 738.08 704.221 736.192 707.037 732.416L709.149 734.336ZM760.495 684.32V687.2H740.335V740H737.455V687.2H717.295V684.32H760.495ZM786.246 683.168C794.182 683.168 799.814 684.928 803.142 688.448L801.222 690.56C798.15 687.552 793.286 686.048 786.63 686.048C776.646 686.048 771.654 690.016 771.654 697.952C771.654 701.024 772.87 703.488 775.302 705.344C777.734 707.136 780.678 708.512 784.134 709.472C787.654 710.432 791.142 711.456 794.598 712.544C798.118 713.568 801.094 715.264 803.526 717.632C805.958 719.936 807.174 722.976 807.174 726.752C807.174 731.168 805.35 734.688 801.702 737.312C798.054 739.936 792.774 741.248 785.862 741.248C782.47 741.248 779.11 740.8 775.782 739.904C772.518 739.008 770.086 737.696 768.486 735.968L770.406 733.856C773.67 736.864 778.694 738.368 785.478 738.368C791.686 738.368 796.358 737.216 799.494 734.912C802.694 732.608 804.294 729.92 804.294 726.848C804.294 723.648 803.078 721.056 800.646 719.072C798.214 717.088 795.238 715.616 791.718 714.656C788.262 713.632 784.774 712.608 781.254 711.584C777.798 710.496 774.854 708.832 772.422 706.592C769.99 704.352 768.773 701.408 768.773 697.76C768.773 692.832 770.406 689.184 773.67 686.816C776.998 684.384 781.19 683.168 786.246 683.168Z" fill="white"/>
<path d="M306.588 611.178H725.098L484 128.81L230.392 636H194L484 56L774 636H306.588V611.178Z" fill="white"/>
<defs>
<filter id="filter0_d_113_5" x="0" y="0" width="968" height="968" filterUnits="userSpaceOnUse" color-interpolation-filters="sRGB">
<feFlood flood-opacity="0" result="BackgroundImageFix"/>
<feColorMatrix in="SourceAlpha" type="matrix" values="0 0 0 0 0 0 0 0 0 0 0 0 0 0 0 0 0 0 127 0" result="hardAlpha"/>
<feOffset dy="4"/>
<feGaussianBlur stdDeviation="2"/>
<feComposite in2="hardAlpha" operator="out"/>
<feColorMatrix type="matrix" values="0 0 0 0 0 0 0 0 0 0 0 0 0 0 0 0 0 0 0.25 0"/>
<feBlend mode="normal" in2="BackgroundImageFix" result="effect1_dropShadow_113_5"/>
<feBlend mode="normal" in="SourceGraphic" in2="effect1_dropShadow_113_5" result="shape"/>
</filter>
<linearGradient id="paint0_linear_113_5" x1="163.319" y1="303.319" x2="973.191" y2="648.511" gradientUnits="userSpaceOnUse">
<stop stop-color="#7702FF"/>
<stop offset="0.265625" stop-color="#AC18E5" stop-opacity="0.88"/>
<stop offset="0.927083" stop-color="#CC26D5"/>
<stop offset="1" stop-color="#7702FF" stop-opacity="0"/>
</linearGradient>
</defs>
</svg>
